<svg width="512" height="512" viewBox="0 0 512 512" fill="none" xmlns="http://www.w3.org/2000/svg">
<g clip-path="url(#clip0)">
<path d="M180.819 404.52H224.157C334.791 404.52 405.047 356.336 405.047 252.163C405.047 189.175 374.63 162.795 311.372 162.795H292.799V206.133H310.565C330.484 206.133 347.981 221.746 347.981 253.24C347.981 320.804 306.527 359.028 235.194 359.028H178.935C114.332 359.028 73.6852 379.217 73.6852 438.706V470.2H130.752V442.205C130.752 417.979 144.48 404.52 180.819 404.52ZM189.702 336.417C250.806 336.417 304.104 296.578 304.104 228.475V108.151H368.977V59.6986H151.479V162.795C116.485 162.795 83.1065 190.79 83.1065 239.242C83.1065 295.771 128.329 336.417 189.702 336.417ZM190.779 285.003C164.668 285.003 140.711 270.737 140.711 241.665C140.711 219.861 154.44 206.133 177.32 206.133H251.345V162.795H202.085V108.151H247.038V228.475C247.038 258.354 227.118 285.003 190.779 285.003Z" fill="#12C05B"/>
</g>
<defs>
<clipPath id="clip0">
<rect width="512" height="512" fill="white"/>
</clipPath>
</defs>
</svg>
